# xmcd CD database file
#
# Track frame offsets:
#	150
#	27269
#	39494
#	62302
#	78961
#	107633
#	115087
#	134363
#	157407
#	168102
#	188614
#
# Disc length: 2756 seconds
#
# Revision: 0
# Processed by: cddbd v1.5.1PL0 Copyright (c) Steve Scherf et al.
# Submitted via: CDex 1.51
#
DISCID=820ac20b
DTITLE=Under Byen - Kyst
DYEAR=1999
DGENRE=Jazz
TTITLE0=Sejler
TTITLE1=Hjertebarn
TTITLE2=Vindeltrappe
TTITLE3=Gå Ind I Lyset
TTITLE4=Vinterbørn
TTITLE5=Ingenting Hos Mig
TTITLE6=På Disse Kanter
TTITLE7=Fugle Og Ild
TTITLE8=Syng Hvide Nat
TTITLE9=Sylfiden
TTITLE10=Kyst
EXTD=YEAR: 1999
EXTT0=
EXTT1=
EXTT2=
EXTT3=
EXTT4=
EXTT5=
EXTT6=
EXTT7=
EXTT8=
EXTT9=
EXTT10=
PLAYORDER=
